<svg width="600" height="400" viewBox="0 0 600 400" fill="none" xmlns="http://www.w3.org/2000/svg">
  <!-- Background Elements -->
  <circle cx="300" cy="200" r="160" fill="#EFF6FF" />
  <circle cx="300" cy="200" r="120" fill="#DBEAFE" />
  
  <!-- Envelope Base -->
  <path d="M200 160H400V280H200V160Z" fill="white" stroke="#3B82F6" stroke-width="4"/>
  
  <!-- Envelope Flap -->
  <path d="M200 160L300 220L400 160" stroke="#3B82F6" stroke-width="4" fill="none"/>
  
  <!-- Lock Icon -->
  <circle cx="300" cy="220" r="25" fill="#3B82F6"/>
  <rect x="290" y="210" width="20" height="25" rx="4" fill="white"/>
  <circle cx="300" cy="220" r="4" fill="#3B82F6"/>
  <line x1="300" y1="220" x2="300" y2="228" stroke="#3B82F6" stroke-width="2"/>
  
  <!-- Decorative Elements -->
  <circle cx="180" cy="140" r="8" fill="#60A5FA"/>
  <circle cx="420" cy="260" r="6" fill="#60A5FA"/>
  <circle cx="200" cy="300" r="10" fill="#60A5FA"/>
  <circle cx="400" cy="120" r="8" fill="#60A5FA"/>
  
  <!-- Email Symbol @ -->
  <path d="M280 240C280 240 320 240 320 200S280 160 280 200S280 240 320 240" 
        stroke="#3B82F6" stroke-width="3" fill="none"/>
  
  <!-- Wavy Lines -->
  <path d="M160 180C160 180 180 160 200 180C220 200 240 180 240 180" 
        stroke="#3B82F6" stroke-width="2" stroke-linecap="round"/>
  <path d="M360 220C360 220 380 200 400 220C420 240 440 220 440 220" 
        stroke="#3B82F6" stroke-width="2" stroke-linecap="round"/>
</svg>