<svg xmlns="http://www.w3.org/2000/svg" width="600" height="400" viewBox="0 0 600 400">
  <defs>
    <linearGradient id="gradient" x1="0%" y1="0%" x2="100%" y2="100%">
      <stop offset="0%" style="stop-color:#3B82F6;stop-opacity:0.2"/>
      <stop offset="100%" style="stop-color:#2563EB;stop-opacity:0.1"/>
    </linearGradient>
  </defs>
  <rect width="600" height="400" fill="url(#gradient)" rx="20"/>
  <g transform="translate(150, 50)">
    <rect x="50" y="50" width="200" height="250" rx="10" fill="#fff" stroke="#3B82F6" stroke-width="2"/>
    <circle cx="150" cy="100" r="30" fill="#3B82F6" opacity="0.2"/>
    <path d="M150 80 C 130 80, 120 110, 150 130 C 180 110, 170 80, 150 80" fill="#3B82F6"/>
    <rect x="80" y="160" width="140" height="10" rx="5" fill="#E2E8F0"/>
    <rect x="80" y="190" width="140" height="10" rx="5" fill="#E2E8F0"/>
    <rect x="100" y="240" width="100" height="30" rx="15" fill="#3B82F6"/>
  </g>
  <g transform="translate(300, 150)">
    <circle cx="50" cy="50" r="40" fill="none" stroke="#3B82F6" stroke-width="2" stroke-dasharray="8 4"/>
    <path d="M30 50 L45 65 L70 35" stroke="#3B82F6" stroke-width="3" fill="none"/>
  </g>
  <g transform="translate(100, 200)">
    <circle cx="25" cy="25" r="20" fill="#3B82F6" opacity="0.1"/>
    <circle cx="200" cy="100" r="15" fill="#3B82F6" opacity="0.1"/>
    <circle cx="300" cy="50" r="10" fill="#3B82F6" opacity="0.1"/>
  </g>
</svg>