<svg width="600" height="400" viewBox="0 0 600 400" fill="none" xmlns="http://www.w3.org/2000/svg">
  <!-- Background Elements -->
  <circle cx="300" cy="200" r="180" fill="#EFF6FF" />
  <circle cx="300" cy="200" r="140" fill="#DBEAFE" />
  
  <!-- Form/Document Shape -->
  <rect x="220" y="100" width="160" height="200" rx="12" fill="white" stroke="#3B82F6" stroke-width="4"/>
  
  <!-- Form Lines -->
  <rect x="240" y="130" width="120" height="8" rx="4" fill="#93C5FD"/>
  <rect x="240" y="160" width="100" height="8" rx="4" fill="#93C5FD"/>
  <rect x="240" y="190" width="110" height="8" rx="4" fill="#93C5FD"/>
  
  <!-- Checkmark/Success Element -->
  <circle cx="300" cy="240" r="25" fill="#3B82F6"/>
  <path d="M290 240L298 248L312 234" stroke="white" stroke-width="4" stroke-linecap="round" stroke-linejoin="round"/>
  
  <!-- Decorative Elements -->
  <circle cx="200" cy="150" r="10" fill="#60A5FA"/>
  <circle cx="400" cy="250" r="8" fill="#60A5FA"/>
  <circle cx="180" cy="280" r="6" fill="#60A5FA"/>
  <circle cx="420" cy="160" r="6" fill="#60A5FA"/>
  
  <!-- Abstract Shapes -->
  <path d="M150 180C150 180 170 160 190 180C210 200 230 180 230 180" stroke="#3B82F6" stroke-width="3" stroke-linecap="round"/>
  <path d="M370 220C370 220 390 200 410 220C430 240 450 220 450 220" stroke="#3B82F6" stroke-width="3" stroke-linecap="round"/>
</svg>