<svg width="600" height="400" viewBox="0 0 600 400" fill="none" xmlns="http://www.w3.org/2000/svg">
  <!-- Background Elements -->
  <circle cx="300" cy="200" r="160" fill="#EFF6FF" />
  <circle cx="300" cy="200" r="120" fill="#DBEAFE" />
  
  <!-- Lock Body -->
  <rect x="250" y="160" width="100" height="120" rx="10" fill="white" stroke="#3B82F6" stroke-width="4"/>
  
  <!-- Lock Shackle -->
  <path d="M270 160V130C270 100 330 100 330 130V160" 
        stroke="#3B82F6" stroke-width="4" fill="none"/>
  
  <!-- Keyhole -->
  <circle cx="300" cy="220" r="15" fill="#3B82F6"/>
  <rect x="297" y="220" width="6" height="25" fill="#3B82F6"/>
  
  <!-- Reset Arrows -->
  <path d="M240 240C240 240 220 220 240 200C260 180 280 200 280 200" 
        stroke="#60A5FA" stroke-width="3" stroke-linecap="round"/>
  <path d="M360 200C360 200 380 220 360 240C340 260 320 240 320 240" 
        stroke="#60A5FA" stroke-width="3" stroke-linecap="round"/>
  
  <!-- Decorative Elements -->
  <circle cx="200" cy="150" r="8" fill="#60A5FA"/>
  <circle cx="400" cy="250" r="6" fill="#60A5FA"/>
  <circle cx="180" cy="280" r="10" fill="#60A5FA"/>
  <circle cx="420" cy="160" r="8" fill="#60A5FA"/>
  
  <!-- Stars/Sparkles -->
  <path d="M180 180L190 190M180 190L190 180" stroke="#3B82F6" stroke-width="2"/>
  <path d="M410 220L420 230M410 230L420 220" stroke="#3B82F6" stroke-width="2"/>
  <path d="M350 140L360 150M350 150L360 140" stroke="#3B82F6" stroke-width="2"/>
  
  <!-- Key Lines -->
  <line x1="200" y1="200" x2="220" y2="200" stroke="#3B82F6" stroke-width="2" stroke-linecap="round"/>
  <line x1="380" y1="200" x2="400" y2="200" stroke="#3B82F6" stroke-width="2" stroke-linecap="round"/>
</svg>